<svg width="0" height="0">
    <symbol xmlns="http://www.w3.org/2000/svg" id="bag" viewBox="0 0 511 511">
        <path d="M445.663,469.921l-14.362-359.041C430.968,102.537,424.165,96,415.814,96H351v-0.5C351,42.841,308.159,0,255.5,0
	S160,42.841,160,95.5V96H95.187c-8.351,0-15.153,6.536-15.488,14.88L65.337,469.921c-0.434,10.842,3.468,21.122,10.985,28.946
	C83.84,506.691,93.956,511,104.806,511h301.389c10.851,0,20.966-4.309,28.484-12.133
	C442.195,491.042,446.097,480.763,445.663,469.921z M175,95.5c0-44.388,36.112-80.5,80.5-80.5S336,51.112,336,95.5V96H175V95.5z
	 M423.862,488.474c-4.663,4.853-10.938,7.526-17.667,7.526H104.806c-6.73,0-13.004-2.672-17.667-7.525
	c-4.663-4.853-7.083-11.229-6.813-17.954L94.687,111.48c0.011-0.27,0.23-0.48,0.5-0.48H160v48.5c0,4.142,3.358,7.5,7.5,7.5
	s7.5-3.358,7.5-7.5V111h161v48.5c0,4.142,3.358,7.5,7.5,7.5s7.5-3.358,7.5-7.5V111h64.814c0.269,0,0.488,0.21,0.499,0.48
	l14.362,359.041C430.944,477.245,428.524,483.621,423.862,488.474z"/>
        <path fill="#fff" d="M18.36 12h-5V8.79a1.3 1.3 0 0 1 1.38-1.51h3.51V1.9h-4.8c-5.36 0-6.58 4-6.58 6.58v3.59H3.78v5.54h3.1V33.3h6.5V17.58h4.4z"/>
    </symbol>
    <symbol xmlns="http://www.w3.org/2000/svg" id="sch" viewBox="0 0 487.95 487.95">
        <path d="M481.8,453l-140-140.1c27.6-33.1,44.2-75.4,44.2-121.6C386,85.9,299.5,0.2,193.1,0.2S0,86,0,191.4s86.5,191.1,192.9,191.1
			c45.2,0,86.8-15.5,119.8-41.4l140.5,140.5c8.2,8.2,20.4,8.2,28.6,0C490,473.4,490,461.2,481.8,453z M41,191.4
			c0-82.8,68.2-150.1,151.9-150.1s151.9,67.3,151.9,150.1s-68.2,150.1-151.9,150.1S41,274.1,41,191.4z"/>
    </symbol>
    <symbol xmlns="http://www.w3.org/2000/svg" id="log" viewBox="0 0 32 32">
        <path d="M16,14a6,6,0,1,1,6-6A6,6,0,0,1,16,14ZM16,4a4,4,0,1,0,4,4A4,4,0,0,0,16,4Z"/><path d="M24,30H8a2,2,0,0,1-2-2V22a7,7,0,0,1,7-7h6a7,7,0,0,1,7,7v6A2,2,0,0,1,24,30ZM13,17a5,5,0,0,0-5,5v6H24V22a5,5,0,0,0-5-5Z"/>
    </symbol>
    <symbol xmlns="http://www.w3.org/2000/svg" id="mail" viewBox="0 0 600 600">
        <path d="M0 250 l0 -180 250 0 250 0 0 180 0 180 -250 0 -250 0 0 -180z m480
147 c0 -13 -213 -187 -229 -187 -16 0 -226 170 -229 186 -3 12 32 14 227 14
182 0 231 -3 231 -13z m-230 -217 c3 0 56 41 118 90 l112 91 0 -136 0 -135
-230 0 -230 0 0 135 0 136 112 -91 c62 -49 115 -90 118 -90z"/>
    </symbol>
    <symbol xmlns="http://www.w3.org/2000/svg" id="wa" viewBox="0 0 50 50">
        <path d="M 25 2 C 12.309534 2 2 12.309534 2 25 C 2 29.079097 3.1186875 32.88588 4.984375 36.208984 L 2.0371094 46.730469 A 1.0001 1.0001 0 0 0 3.2402344 47.970703 L 14.210938 45.251953 C 17.434629 46.972929 21.092591 48 25 48 C 37.690466 48 48 37.690466 48 25 C 48 12.309534 37.690466 2 25 2 z M 25 4 C 36.609534 4 46 13.390466 46 25 C 46 36.609534 36.609534 46 25 46 C 21.278025 46 17.792121 45.029635 14.761719 43.333984 A 1.0001 1.0001 0 0 0 14.033203 43.236328 L 4.4257812 45.617188 L 7.0019531 36.425781 A 1.0001 1.0001 0 0 0 6.9023438 35.646484 C 5.0606869 32.523592 4 28.890107 4 25 C 4 13.390466 13.390466 4 25 4 z M 16.642578 13 C 16.001539 13 15.086045 13.23849 14.333984 14.048828 C 13.882268 14.535548 12 16.369511 12 19.59375 C 12 22.955271 14.331391 25.855848 14.613281 26.228516 L 14.615234 26.228516 L 14.615234 26.230469 C 14.588494 26.195329 14.973031 26.752191 15.486328 27.419922 C 15.999626 28.087653 16.717405 28.96464 17.619141 29.914062 C 19.422612 31.812909 21.958282 34.007419 25.105469 35.349609 C 26.554789 35.966779 27.698179 36.339417 28.564453 36.611328 C 30.169845 37.115426 31.632073 37.038799 32.730469 36.876953 C 33.55263 36.755876 34.456878 36.361114 35.351562 35.794922 C 36.246248 35.22873 37.12309 34.524722 37.509766 33.455078 C 37.786772 32.688244 37.927591 31.979598 37.978516 31.396484 C 38.003976 31.104927 38.007211 30.847602 37.988281 30.609375 C 37.969311 30.371148 37.989581 30.188664 37.767578 29.824219 C 37.302009 29.059804 36.774753 29.039853 36.224609 28.767578 C 35.918939 28.616297 35.048661 28.191329 34.175781 27.775391 C 33.303883 27.35992 32.54892 26.991953 32.083984 26.826172 C 31.790239 26.720488 31.431556 26.568352 30.914062 26.626953 C 30.396569 26.685553 29.88546 27.058933 29.587891 27.5 C 29.305837 27.918069 28.170387 29.258349 27.824219 29.652344 C 27.819619 29.649544 27.849659 29.663383 27.712891 29.595703 C 27.284761 29.383815 26.761157 29.203652 25.986328 28.794922 C 25.2115 28.386192 24.242255 27.782635 23.181641 26.847656 L 23.181641 26.845703 C 21.603029 25.455949 20.497272 23.711106 20.148438 23.125 C 20.171937 23.09704 20.145643 23.130901 20.195312 23.082031 L 20.197266 23.080078 C 20.553781 22.728924 20.869739 22.309521 21.136719 22.001953 C 21.515257 21.565866 21.68231 21.181437 21.863281 20.822266 C 22.223954 20.10644 22.02313 19.318742 21.814453 18.904297 L 21.814453 18.902344 C 21.828863 18.931014 21.701572 18.650157 21.564453 18.326172 C 21.426943 18.001263 21.251663 17.580039 21.064453 17.130859 C 20.690033 16.232501 20.272027 15.224912 20.023438 14.634766 L 20.023438 14.632812 C 19.730591 13.937684 19.334395 13.436908 18.816406 13.195312 C 18.298417 12.953717 17.840778 13.022402 17.822266 13.021484 L 17.820312 13.021484 C 17.450668 13.004432 17.045038 13 16.642578 13 z M 16.642578 15 C 17.028118 15 17.408214 15.004701 17.726562 15.019531 C 18.054056 15.035851 18.033687 15.037192 17.970703 15.007812 C 17.906713 14.977972 17.993533 14.968282 18.179688 15.410156 C 18.423098 15.98801 18.84317 16.999249 19.21875 17.900391 C 19.40654 18.350961 19.582292 18.773816 19.722656 19.105469 C 19.863021 19.437122 19.939077 19.622295 20.027344 19.798828 L 20.027344 19.800781 L 20.029297 19.802734 C 20.115837 19.973483 20.108185 19.864164 20.078125 19.923828 C 19.867096 20.342656 19.838461 20.445493 19.625 20.691406 C 19.29998 21.065838 18.968453 21.483404 18.792969 21.65625 C 18.639439 21.80707 18.36242 22.042032 18.189453 22.501953 C 18.016221 22.962578 18.097073 23.59457 18.375 24.066406 C 18.745032 24.6946 19.964406 26.679307 21.859375 28.347656 C 23.05276 29.399678 24.164563 30.095933 25.052734 30.564453 C 25.940906 31.032973 26.664301 31.306607 26.826172 31.386719 C 27.210549 31.576953 27.630655 31.72467 28.119141 31.666016 C 28.607627 31.607366 29.02878 31.310979 29.296875 31.007812 L 29.298828 31.005859 C 29.655629 30.601347 30.715848 29.390728 31.224609 28.644531 C 31.246169 28.652131 31.239109 28.646231 31.408203 28.707031 L 31.408203 28.708984 L 31.410156 28.708984 C 31.487356 28.736474 32.454286 29.169267 33.316406 29.580078 C 34.178526 29.990889 35.053561 30.417875 35.337891 30.558594 C 35.748225 30.761674 35.942113 30.893881 35.992188 30.894531 C 35.995572 30.982516 35.998992 31.07786 35.986328 31.222656 C 35.951258 31.624292 35.8439 32.180225 35.628906 32.775391 C 35.523582 33.066746 34.975018 33.667661 34.283203 34.105469 C 33.591388 34.543277 32.749338 34.852514 32.4375 34.898438 C 31.499896 35.036591 30.386672 35.087027 29.164062 34.703125 C 28.316336 34.437036 27.259305 34.092596 25.890625 33.509766 C 23.114812 32.325956 20.755591 30.311513 19.070312 28.537109 C 18.227674 27.649908 17.552562 26.824019 17.072266 26.199219 C 16.592866 25.575584 16.383528 25.251054 16.208984 25.021484 L 16.207031 25.019531 C 15.897202 24.609805 14 21.970851 14 19.59375 C 14 17.077989 15.168497 16.091436 15.800781 15.410156 C 16.132721 15.052495 16.495617 15 16.642578 15 z"/>
    </symbol>
    <symbol xmlns="http://www.w3.org/2000/svg" id="ra" viewBox="0 0 476.213 476.213">
        <polygon points="345.606,107.5 324.394,128.713 418.787,223.107 0,223.107 0,253.107 418.787,253.107 324.394,347.5 
	345.606,368.713 476.213,238.106 "/>
    </symbol>
	<symbol xmlns="http://www.w3.org/2000/svg" id="fb" viewBox="0 0 30 30">
 <path d="M12,27V15H8v-4h4V8.852C12,4.785,13.981,3,17.361,3c1.619,0,2.475,0.12,2.88,0.175V7h-2.305C16.501,7,16,7.757,16,9.291V11 h4.205l-0.571,4H16v12H12z"/>
	</symbol>
    <symbol xmlns="http://www.w3.org/2000/svg" id="insta" viewBox="0 0 50 50">
        <path d="M 16 3 C 8.8324839 3 3 8.8324839 3 16 L 3 34 C 3 41.167516 8.8324839 47 16 47 L 34 47 C 41.167516 47 47 41.167516 47 34 L 47 16 C 47 8.8324839 41.167516 3 34 3 L 16 3 z M 16 5 L 34 5 C 40.086484 5 45 9.9135161 45 16 L 45 34 C 45 40.086484 40.086484 45 34 45 L 16 45 C 9.9135161 45 5 40.086484 5 34 L 5 16 C 5 9.9135161 9.9135161 5 16 5 z M 37 11 A 2 2 0 0 0 35 13 A 2 2 0 0 0 37 15 A 2 2 0 0 0 39 13 A 2 2 0 0 0 37 11 z M 25 14 C 18.936712 14 14 18.936712 14 25 C 14 31.063288 18.936712 36 25 36 C 31.063288 36 36 31.063288 36 25 C 36 18.936712 31.063288 14 25 14 z M 25 16 C 29.982407 16 34 20.017593 34 25 C 34 29.982407 29.982407 34 25 34 C 20.017593 34 16 29.982407 16 25 C 16 20.017593 20.017593 16 25 16 z"/>
    </symbol>
    <symbol xmlns="http://www.w3.org/2000/svg" id="Yt" viewBox="0 0 26.03 23.44">
        <path d="M21.582,6.186c-0.23-0.86-0.908-1.538-1.768-1.768C18.254,4,12,4,12,4S5.746,4,4.186,4.418 c-0.86,0.23-1.538,0.908-1.768,1.768C2,7.746,2,12,2,12s0,4.254,0.418,5.814c0.23,0.86,0.908,1.538,1.768,1.768 C5.746,20,12,20,12,20s6.254,0,7.814-0.418c0.861-0.23,1.538-0.908,1.768-1.768C22,16.254,22,12,22,12S22,7.746,21.582,6.186z M10,14.598V9.402c0-0.385,0.417-0.625,0.75-0.433l4.5,2.598c0.333,0.192,0.333,0.674,0,0.866l-4.5,2.598 C10.417,15.224,10,14.983,10,14.598z"/>
    </symbol>
    <symbol xmlns="http://www.w3.org/2000/svg" id="tw" viewBox="0 0 26.03 23.67">
        <path d="M28,6.937c-0.957,0.425-1.985,0.711-3.064,0.84c1.102-0.66,1.947-1.705,2.345-2.951c-1.03,0.611-2.172,1.055-3.388,1.295 c-0.973-1.037-2.359-1.685-3.893-1.685c-2.946,0-5.334,2.389-5.334,5.334c0,0.418,0.048,0.826,0.138,1.215 c-4.433-0.222-8.363-2.346-10.995-5.574C3.351,6.199,3.088,7.115,3.088,8.094c0,1.85,0.941,3.483,2.372,4.439 c-0.874-0.028-1.697-0.268-2.416-0.667c0,0.023,0,0.044,0,0.067c0,2.585,1.838,4.741,4.279,5.23 c-0.447,0.122-0.919,0.187-1.406,0.187c-0.343,0-0.678-0.034-1.003-0.095c0.679,2.119,2.649,3.662,4.983,3.705 c-1.825,1.431-4.125,2.284-6.625,2.284c-0.43,0-0.855-0.025-1.273-0.075c2.361,1.513,5.164,2.396,8.177,2.396 c9.812,0,15.176-8.128,15.176-15.177c0-0.231-0.005-0.461-0.015-0.69C26.38,8.945,27.285,8.006,28,6.937z"/>
    </symbol>
	<symbol xmlns="http://www.w3.org/2000/svg" id="tg" viewBox="0 0 26.03 23.67">
        <path d="M 20.302734 2.984375 C 20.013769 2.996945 19.748583 3.080055 19.515625 3.171875 C 19.300407 3.256634 18.52754 3.5814726 17.296875 4.0976562 C 16.06621 4.61384 14.435476 5.2982348 12.697266 6.0292969 C 9.2208449 7.4914211 5.314238 9.1361259 3.3125 9.9785156 C 3.243759 10.007156 2.9645852 10.092621 2.65625 10.328125 C 2.3471996 10.564176 2.0039062 11.076462 2.0039062 11.636719 C 2.0039062 12.088671 2.2295201 12.548966 2.5019531 12.8125 C 2.7743861 13.076034 3.0504903 13.199244 3.28125 13.291016 C 3.9563403 13.559857 6.0424892 14.392968 6.9492188 14.755859 C 7.2668647 15.707799 8.0129251 17.950071 8.1875 18.501953 L 8.1855469 18.501953 C 8.3275588 18.951162 8.4659791 19.243913 8.6582031 19.488281 C 8.7543151 19.610465 8.8690398 19.721184 9.0097656 19.808594 C 9.0637596 19.842134 9.1235454 19.868148 9.1835938 19.892578 C 9.191962 19.896131 9.2005867 19.897012 9.2089844 19.900391 L 9.1855469 19.894531 C 9.2029579 19.901531 9.2185841 19.911859 9.2363281 19.917969 C 9.2652427 19.927926 9.2852873 19.927599 9.3242188 19.935547 C 9.4612233 19.977694 9.5979794 20.005859 9.7246094 20.005859 C 10.26822 20.005859 10.601562 19.710938 10.601562 19.710938 L 10.623047 19.695312 L 12.970703 17.708984 L 15.845703 20.367188 C 15.897113 20.439837 16.308174 20.998047 17.261719 20.998047 C 17.829844 20.998047 18.280978 20.718791 18.568359 20.423828 C 18.855741 20.128866 19.034757 19.82706 19.115234 19.417969 L 19.115234 19.414062 L 19.115234 19.412109 C 19.171124 19.121728 21.931641 5.265625 21.931641 5.265625 L 21.925781 5.2890625 C 22.01148 4.9067181 22.036735 4.5369631 21.935547 4.1601562 C 21.834358 3.7833495 21.561271 3.4156252 21.232422 3.2226562 C 20.903572 3.0296874 20.591699 2.9718046 20.302734 2.984375 z M 19.908203 5.1738281 C 19.799749 5.7182284 17.343164 18.059965 17.183594 18.878906 L 14.328125 16.240234 C 13.59209 15.559749 12.44438 15.535812 11.679688 16.181641 L 10.222656 17.414062 L 11 14.375 C 11 14.375 16.362547 8.9468594 16.685547 8.6308594 C 16.945547 8.3778594 17 8.2891719 17 8.2011719 C 17 8.0841719 16.939781 8 16.800781 8 C 16.675781 8 16.506016 8.1197812 16.416016 8.1757812 C 15.267511 8.8918132 10.350132 11.694224 7.96875 13.048828 C 7.8792978 12.995267 7.7913128 12.939666 7.6933594 12.900391 C 6.9119785 12.587666 5.4101276 11.985551 4.53125 11.634766 C 6.6055146 10.76177 10.161156 9.2658083 13.472656 7.8730469 C 15.210571 7.142109 16.840822 6.4570977 18.070312 5.9414062 C 19.108158 5.5060977 19.649538 5.2807035 19.908203 5.1738281 z M 17.152344 19.023438 C 17.152344 19.023438 17.154297 19.023438 17.154297 19.023438 C 17.154234 19.023761 17.152444 19.03095 17.152344 19.03125 C 17.154024 19.022709 17.151187 19.029588 17.152344 19.023438 z"/>
    </symbol>
    <symbol xmlns="http://www.w3.org/2000/svg" id="bars" aria-hidden="true" data-icon="bars" data-prefix="fas" viewBox="0 0 448 512">
        <path d="M16 132h416c8.837 0 16-7.163 16-16V76c0-8.837-7.163-16-16-16H16C7.163 60 0 67.163 0 76v40c0 8.837 7.163 16 16 16zm0 160h416c8.837 0 16-7.163 16-16v-40c0-8.837-7.163-16-16-16H16c-8.837 0-16 7.163-16 16v40c0 8.837 7.163 16 16 16zm0 160h416c8.837 0 16-7.163 16-16v-40c0-8.837-7.163-16-16-16H16c-8.837 0-16 7.163-16 16v40c0 8.837 7.163 16 16 16z"/>
    </symbol>
    <symbol xmlns="http://www.w3.org/2000/svg" id="cross" aria-hidden="true" data-icon="times" data-prefix="fas" viewBox="0 0 352 512">
        <path d="M242.72 256l100.07-100.07c12.28-12.28 12.28-32.19 0-44.48l-22.24-22.24c-12.28-12.28-32.19-12.28-44.48 0L176 189.28 75.93 89.21c-12.28-12.28-32.19-12.28-44.48 0L9.21 111.45c-12.28 12.28-12.28 32.19 0 44.48L109.28 256 9.21 356.07c-12.28 12.28-12.28 32.19 0 44.48l22.24 22.24c12.28 12.28 32.2 12.28 44.48 0L176 322.72l100.07 100.07c12.28 12.28 32.2 12.28 44.48 0l22.24-22.24c12.28-12.28 12.28-32.19 0-44.48L242.72 256z"/>
    </symbol>
	<symbol xmlns="http://www.w3.org/2000/svg" id="like"  viewBox="0 0 51.997 51.997">
        <path d="M51.911,16.242C51.152,7.888,45.239,1.827,37.839,1.827c-4.93,0-9.444,2.653-11.984,6.905
		c-2.517-4.307-6.846-6.906-11.697-6.906c-7.399,0-13.313,6.061-14.071,14.415c-0.06,0.369-0.306,2.311,0.442,5.478
		c1.078,4.568,3.568,8.723,7.199,12.013l18.115,16.439l18.426-16.438c3.631-3.291,6.121-7.445,7.199-12.014
		C52.216,18.553,51.97,16.611,51.911,16.242z M49.521,21.261c-0.984,4.172-3.265,7.973-6.59,10.985L25.855,47.481L9.072,32.25
		c-3.331-3.018-5.611-6.818-6.596-10.99c-0.708-2.997-0.417-4.69-0.416-4.701l0.015-0.101C2.725,9.139,7.806,3.826,14.158,3.826
		c4.687,0,8.813,2.88,10.771,7.515l0.921,2.183l0.921-2.183c1.927-4.564,6.271-7.514,11.069-7.514
		c6.351,0,11.433,5.313,12.096,12.727C49.938,16.57,50.229,18.264,49.521,21.261z"/>
    </symbol>
<symbol xmlns="http://www.w3.org/2000/svg" id="like_1"  viewBox="0 0 51.997 51.997">
       <path d="M51.911,16.242C51.152,7.888,45.239,1.827,37.839,1.827c-4.93,0-9.444,2.653-11.984,6.905
	c-2.517-4.307-6.846-6.906-11.697-6.906c-7.399,0-13.313,6.061-14.071,14.415c-0.06,0.369-0.306,2.311,0.442,5.478
	c1.078,4.568,3.568,8.723,7.199,12.013l18.115,16.439l18.426-16.438c3.631-3.291,6.121-7.445,7.199-12.014
	C52.216,18.553,51.97,16.611,51.911,16.242z"/>
    </symbol>
	<symbol xmlns="http://www.w3.org/2000/svg" id="right_arrow" viewBox="0 0 511 511">
        <polygon points="345.606,107.5 324.394,128.713 418.787,223.107 0,223.107 0,253.107 418.787,253.107 324.394,347.5 
	345.606,368.713 476.213,238.106 "/>
    </symbol>
	<symbol xmlns="http://www.w3.org/2000/svg" id="left_arrow" viewBox="0 0 511 511">
       <polygon points="476.213,223.107 57.427,223.107 151.82,128.713 130.607,107.5 0,238.106 130.607,368.714 151.82,347.5 
	57.427,253.107 476.213,253.107 "/>
    </symbol>
	<symbol xmlns="http://www.w3.org/2000/svg" id="pencil" viewBox="0 0 511 511">
       <path d="m453.7,133l-286,289.6-71.6-75 284.8-288.4c9-9.1 24.8-9 33.7,0.1l39.2,40.3c9,9.2 8.9,24.2-0.1,33.4zm-375.7,254.4l49.1,51.5-66.9,14.5 17.8-66zm404.8-316.3l-39.2-40.3c-13.3-14.8-54.9-35.8-91.5-0.4l-298.7,302.5c-2.5,2.5-4.3,5.6-5.2,9l-36,133.1c-4.6,17 4.2,27.5 19.6,25.7 1.4-0.2 140.9-30.1 140.9-30.1 3.8-0.8 7.3-2.8 10.1-5.6l299.6-303.4c24.6-24.8 24.8-65.4 0.4-90.5z"/>
    </symbol>

</svg>


