<svg width="0" height="0">
    <symbol xmlns="http://www.w3.org/2000/svg" id="bag" viewBox="0 0 511 511">
        <path d="M445.663,469.921l-14.362-359.041C430.968,102.537,424.165,96,415.814,96H351v-0.5C351,42.841,308.159,0,255.5,0
	S160,42.841,160,95.5V96H95.187c-8.351,0-15.153,6.536-15.488,14.88L65.337,469.921c-0.434,10.842,3.468,21.122,10.985,28.946
	C83.84,506.691,93.956,511,104.806,511h301.389c10.851,0,20.966-4.309,28.484-12.133
	C442.195,491.042,446.097,480.763,445.663,469.921z M175,95.5c0-44.388,36.112-80.5,80.5-80.5S336,51.112,336,95.5V96H175V95.5z
	 M423.862,488.474c-4.663,4.853-10.938,7.526-17.667,7.526H104.806c-6.73,0-13.004-2.672-17.667-7.525
	c-4.663-4.853-7.083-11.229-6.813-17.954L94.687,111.48c0.011-0.27,0.23-0.48,0.5-0.48H160v48.5c0,4.142,3.358,7.5,7.5,7.5
	s7.5-3.358,7.5-7.5V111h161v48.5c0,4.142,3.358,7.5,7.5,7.5s7.5-3.358,7.5-7.5V111h64.814c0.269,0,0.488,0.21,0.499,0.48
	l14.362,359.041C430.944,477.245,428.524,483.621,423.862,488.474z"/>
        <path fill="#fff" d="M18.36 12h-5V8.79a1.3 1.3 0 0 1 1.38-1.51h3.51V1.9h-4.8c-5.36 0-6.58 4-6.58 6.58v3.59H3.78v5.54h3.1V33.3h6.5V17.58h4.4z"/>
    </symbol>
    <symbol xmlns="http://www.w3.org/2000/svg" id="sch" viewBox="0 0 487.95 487.95">
        <path d="M481.8,453l-140-140.1c27.6-33.1,44.2-75.4,44.2-121.6C386,85.9,299.5,0.2,193.1,0.2S0,86,0,191.4s86.5,191.1,192.9,191.1
			c45.2,0,86.8-15.5,119.8-41.4l140.5,140.5c8.2,8.2,20.4,8.2,28.6,0C490,473.4,490,461.2,481.8,453z M41,191.4
			c0-82.8,68.2-150.1,151.9-150.1s151.9,67.3,151.9,150.1s-68.2,150.1-151.9,150.1S41,274.1,41,191.4z"/>
    </symbol>
    <symbol xmlns="http://www.w3.org/2000/svg" id="log" viewBox="0 0 32 32">
        <path d="M16,14a6,6,0,1,1,6-6A6,6,0,0,1,16,14ZM16,4a4,4,0,1,0,4,4A4,4,0,0,0,16,4Z"/><path d="M24,30H8a2,2,0,0,1-2-2V22a7,7,0,0,1,7-7h6a7,7,0,0,1,7,7v6A2,2,0,0,1,24,30ZM13,17a5,5,0,0,0-5,5v6H24V22a5,5,0,0,0-5-5Z"/>
    </symbol>
    <symbol xmlns="http://www.w3.org/2000/svg" id="ra" viewBox="0 0 476.213 476.213">
        <polygon points="345.606,107.5 324.394,128.713 418.787,223.107 0,223.107 0,253.107 418.787,253.107 324.394,347.5 
	345.606,368.713 476.213,238.106 "/>
    </symbol>
    <symbol xmlns="http://www.w3.org/2000/svg" id="circle" viewBox="0 0 25.21 23.55">
        <path d="M12 3.5C7.30558 3.5 3.5 7.30558 3.5 12C3.5 16.6944 7.30558 20.5 12 20.5C16.6944 20.5 20.5 16.6944 20.5 12C20.5 7.30558 16.6944 3.5 12 3.5ZM2 12C2 6.47715 6.47715 2 12 2C17.5228 2 22 6.47715 22 12C22 17.5228 17.5228 22 12 22C6.47715 22 2 17.5228 2 12Z" fill="#212121"/>
    </symbol>
    <symbol xmlns="http://www.w3.org/2000/svg" id="washing_03" viewBox="0 0 28 13.95">
        <path d="M28 12.62v.24A1.51 1.51 0 0 1 26.31 14H1.2A1.28 1.28 0 0 1 0 12.45a10.47 10.47 0 0 1 4.25-7 2 2 0 0 1 1.08-.35h19.16L24 2.16H8a1 1 0 0 1-.68-.22A2.05 2.05 0 0 1 7.57 0H25a1.69 1.69 0 0 1 1 1.32q.66 4.05 1.36 8.1c.22 1.07.44 2.13.64 3.2zm-25.66-.87h23.3l-.77-4.51H5.76a.85.85 0 0 0-.5.12 8.36 8.36 0 0 0-2.92 4.39z"/>
        <path d="M14 10.71a1.09 1.09 0 0 1-1.14-1.12A1.13 1.13 0 0 1 14 8.46a1.2 1.2 0 0 1 1.13 1.11A1.13 1.13 0 0 1 14 10.71z"/>
    </symbol>
    <symbol xmlns="http://www.w3.org/2000/svg" id="washing_04" viewBox="0 0 26.03 23.44">
        <path d="M3.62 18.78l-2.08 1.29a.56.56 0 0 1-.91-.22c-.81-1.39-1-1.19.48-2.1l1.38-.86a11.75 11.75 0 0 1-1.15-6.07A10.6 10.6 0 0 1 2.31 7c.19-.41.12-.61-.27-.82S1 5.52.52 5.21 0 4.69.28 4.25c.93-1.41.67-1.36 2-.51l1.34.84A11.69 11.69 0 0 1 13 0a11.67 11.67 0 0 1 9.4 4.65l1.92-1.18c.65-.39.77-.36 1.17.27.77 1.21.7 1.18-.44 1.85-.49.29-1 .6-1.5.93a12.55 12.55 0 0 1 1.18 5.21A12.37 12.37 0 0 1 23.54 17c.65.41 1.29.84 2 1.23.48.28.54.57.24 1-.76 1.22-.75 1.23-2 .46l-1.37-.85a11.65 11.65 0 0 1-9.41 4.6 11.67 11.67 0 0 1-9.38-4.66zm2-13c2.41 1.51 4.77 3 7.16 4.46a.7.7 0 0 0 .59 0c.73-.42 1.45-.87 2.16-1.31l5-3.07A9.44 9.44 0 0 0 5.62 5.8zm-.09 11.83c4.4 5.43 12 4.22 14.86.05v-.05c-2.37-1.49-4.73-3-7.11-4.45a.72.72 0 0 0-.59.08c-.78.45-1.55.93-2.32 1.41zm-1.16-1.87l6.57-4L4.4 7.63a9.52 9.52 0 0 0-.03 8.11zm10.74-4l6.56 4.09a9.75 9.75 0 0 0 0-8.13z"/>
    </symbol>
    <symbol xmlns="http://www.w3.org/2000/svg" id="washing_05" viewBox="0 0 26.03 23.67">
        <path d="M1.14 0v23.66H24.8V0zm21.44 21.51H3.21V2.15h19.37z"/>
        <path d="M3.62 19l-2.08 1.3a.56.56 0 0 1-.91-.22c-.81-1.39-1-1.19.48-2.1l1.38-.86A11.75 11.75 0 0 1 1.33 11a10.6 10.6 0 0 1 1-3.86c.19-.41.12-.61-.27-.82S1 5.75.52 5.44 0 4.92.28 4.48c.93-1.41.67-1.36 2-.51l1.34.84A11.69 11.69 0 0 1 13 .23a11.67 11.67 0 0 1 9.4 4.65l1.92-1.18c.65-.39.77-.36 1.17.27.77 1.21.7 1.18-.44 1.85-.49.29-1 .6-1.5.93A12.55 12.55 0 0 1 24.76 12a12.37 12.37 0 0 1-1.22 5.24c.65.41 1.29.84 2 1.23.48.28.54.57.24 1-.76 1.22-.75 1.23-2 .46l-1.37-.85A11.65 11.65 0 0 1 13 23.67 11.67 11.67 0 0 1 3.62 19zm2-13C8 7.54 10.4 9 12.78 10.49a.7.7 0 0 0 .59 0c.73-.42 1.45-.87 2.16-1.31l5-3.07A9.44 9.44 0 0 0 5.62 6zm-.09 11.84c4.4 5.43 12 4.22 14.86.05v-.05c-2.37-1.49-4.73-3-7.11-4.45a.72.72 0 0 0-.59.08c-.78.45-1.55.93-2.32 1.41zM4.37 16l6.57-4L4.4 7.86A9.52 9.52 0 0 0 4.37 16zm10.74-4l6.56 4.09a9.75 9.75 0 0 0 0-8.13z"/>
    </symbol>
    <symbol xmlns="http://www.w3.org/2000/svg" id="bars" aria-hidden="true" data-icon="bars" data-prefix="fas" viewBox="0 0 448 512">
        <path d="M16 132h416c8.837 0 16-7.163 16-16V76c0-8.837-7.163-16-16-16H16C7.163 60 0 67.163 0 76v40c0 8.837 7.163 16 16 16zm0 160h416c8.837 0 16-7.163 16-16v-40c0-8.837-7.163-16-16-16H16c-8.837 0-16 7.163-16 16v40c0 8.837 7.163 16 16 16zm0 160h416c8.837 0 16-7.163 16-16v-40c0-8.837-7.163-16-16-16H16c-8.837 0-16 7.163-16 16v40c0 8.837 7.163 16 16 16z"/>
    </symbol>
    <symbol xmlns="http://www.w3.org/2000/svg" id="cross" aria-hidden="true" data-icon="times" data-prefix="fas" viewBox="0 0 352 512">
        <path d="M242.72 256l100.07-100.07c12.28-12.28 12.28-32.19 0-44.48l-22.24-22.24c-12.28-12.28-32.19-12.28-44.48 0L176 189.28 75.93 89.21c-12.28-12.28-32.19-12.28-44.48 0L9.21 111.45c-12.28 12.28-12.28 32.19 0 44.48L109.28 256 9.21 356.07c-12.28 12.28-12.28 32.19 0 44.48l22.24 22.24c12.28 12.28 32.2 12.28 44.48 0L176 322.72l100.07 100.07c12.28 12.28 32.2 12.28 44.48 0l22.24-22.24c12.28-12.28 12.28-32.19 0-44.48L242.72 256z"/>
    </symbol>
</svg>
